<mxfile host="app.diagrams.net" modified="2023-01-15T07:16:14.712Z" agent="5.0 (Windows NT 10.0; WOW64) AppleWebKit/537.36 (KHTML, like Gecko) Chrome/102.0.0.0 Safari/537.36" version="20.8.3" etag="ojigyA8mMAew8D5UvBPb" type="github">
  <diagram id="Cu6BmdPR7tdzUya2GzKG" name="第 1 页">
    <mxGraphModel dx="1180" dy="720" grid="1" gridSize="10" guides="1" tooltips="1" connect="1" arrows="1" fold="1" page="1" pageScale="1" pageWidth="827" pageHeight="1169" math="0" shadow="0">
      <root>
        <mxCell id="0" />
        <mxCell id="1" parent="0" />
        <mxCell id="Zn6deWEafZFkDb37yghi-1" value="" style="group" vertex="1" connectable="0" parent="1">
          <mxGeometry x="76" y="246" width="280" height="205.8771205041968" as="geometry" />
        </mxCell>
        <mxCell id="Zn6deWEafZFkDb37yghi-2" value="" style="swimlane;startSize=0;strokeWidth=2;" vertex="1" parent="Zn6deWEafZFkDb37yghi-1">
          <mxGeometry width="280" height="200" as="geometry">
            <mxRectangle x="120" y="280" width="50" height="40" as="alternateBounds" />
          </mxGeometry>
        </mxCell>
        <mxCell id="Zn6deWEafZFkDb37yghi-3" value="" style="group;rotation=40;" vertex="1" connectable="0" parent="Zn6deWEafZFkDb37yghi-2">
          <mxGeometry x="50" y="120" width="20" height="30" as="geometry" />
        </mxCell>
        <mxCell id="Zn6deWEafZFkDb37yghi-4" value="" style="ellipse;whiteSpace=wrap;html=1;aspect=fixed;fillColor=#FF66B3;rotation=40;" vertex="1" parent="Zn6deWEafZFkDb37yghi-3">
          <mxGeometry x="15" y="6" width="10" height="10" as="geometry" />
        </mxCell>
        <mxCell id="Zn6deWEafZFkDb37yghi-5" value="" style="ellipse;whiteSpace=wrap;html=1;aspect=fixed;fillColor=#FF66B3;rotation=40;" vertex="1" parent="Zn6deWEafZFkDb37yghi-3">
          <mxGeometry x="-5" y="14" width="10" height="10" as="geometry" />
        </mxCell>
        <mxCell id="Zn6deWEafZFkDb37yghi-6" value="" style="endArrow=none;html=1;rounded=0;startArrow=none;" edge="1" parent="Zn6deWEafZFkDb37yghi-3" source="Zn6deWEafZFkDb37yghi-5" target="Zn6deWEafZFkDb37yghi-4">
          <mxGeometry width="50" height="50" relative="1" as="geometry">
            <mxPoint x="-33" y="51" as="sourcePoint" />
            <mxPoint x="37" y="44" as="targetPoint" />
          </mxGeometry>
        </mxCell>
        <mxCell id="Zn6deWEafZFkDb37yghi-7" value="" style="group;rotation=40;" vertex="1" connectable="0" parent="Zn6deWEafZFkDb37yghi-3">
          <mxGeometry x="-10" y="-24" width="20" height="30" as="geometry" />
        </mxCell>
        <mxCell id="Zn6deWEafZFkDb37yghi-8" value="" style="ellipse;whiteSpace=wrap;html=1;aspect=fixed;fillColor=#FF66B3;rotation=40;" vertex="1" parent="Zn6deWEafZFkDb37yghi-7">
          <mxGeometry x="15" y="6" width="10" height="10" as="geometry" />
        </mxCell>
        <mxCell id="Zn6deWEafZFkDb37yghi-9" value="" style="ellipse;whiteSpace=wrap;html=1;aspect=fixed;fillColor=#FF66B3;rotation=40;" vertex="1" parent="Zn6deWEafZFkDb37yghi-7">
          <mxGeometry x="-5" y="14" width="10" height="10" as="geometry" />
        </mxCell>
        <mxCell id="Zn6deWEafZFkDb37yghi-10" value="" style="endArrow=none;html=1;rounded=0;startArrow=none;" edge="1" parent="Zn6deWEafZFkDb37yghi-7" source="Zn6deWEafZFkDb37yghi-9" target="Zn6deWEafZFkDb37yghi-8">
          <mxGeometry width="50" height="50" relative="1" as="geometry">
            <mxPoint x="-33" y="51" as="sourcePoint" />
            <mxPoint x="37" y="44" as="targetPoint" />
          </mxGeometry>
        </mxCell>
        <mxCell id="Zn6deWEafZFkDb37yghi-11" value="" style="group;rotation=20;" vertex="1" connectable="0" parent="Zn6deWEafZFkDb37yghi-2">
          <mxGeometry x="35" y="80" width="20" height="30" as="geometry" />
        </mxCell>
        <mxCell id="Zn6deWEafZFkDb37yghi-12" value="" style="ellipse;whiteSpace=wrap;html=1;aspect=fixed;fillColor=#FF66B3;rotation=20;" vertex="1" parent="Zn6deWEafZFkDb37yghi-11">
          <mxGeometry x="13" y="3" width="10" height="10" as="geometry" />
        </mxCell>
        <mxCell id="Zn6deWEafZFkDb37yghi-13" value="" style="ellipse;whiteSpace=wrap;html=1;aspect=fixed;fillColor=#FF66B3;rotation=20;" vertex="1" parent="Zn6deWEafZFkDb37yghi-11">
          <mxGeometry x="-3" y="17" width="10" height="10" as="geometry" />
        </mxCell>
        <mxCell id="Zn6deWEafZFkDb37yghi-14" value="" style="endArrow=none;html=1;rounded=0;startArrow=none;" edge="1" parent="Zn6deWEafZFkDb37yghi-11" source="Zn6deWEafZFkDb37yghi-13" target="Zn6deWEafZFkDb37yghi-12">
          <mxGeometry width="50" height="50" relative="1" as="geometry">
            <mxPoint x="-18" y="64" as="sourcePoint" />
            <mxPoint x="45" y="33" as="targetPoint" />
          </mxGeometry>
        </mxCell>
        <mxCell id="Zn6deWEafZFkDb37yghi-15" value="" style="group;rotation=15;" vertex="1" connectable="0" parent="Zn6deWEafZFkDb37yghi-11">
          <mxGeometry x="-7" y="-17" width="20" height="30" as="geometry" />
        </mxCell>
        <mxCell id="Zn6deWEafZFkDb37yghi-16" value="" style="ellipse;whiteSpace=wrap;html=1;aspect=fixed;fillColor=#FF66B3;rotation=15;" vertex="1" parent="Zn6deWEafZFkDb37yghi-15">
          <mxGeometry x="12" y="2" width="10" height="10" as="geometry" />
        </mxCell>
        <mxCell id="Zn6deWEafZFkDb37yghi-17" value="" style="ellipse;whiteSpace=wrap;html=1;aspect=fixed;fillColor=#FF66B3;rotation=15;" vertex="1" parent="Zn6deWEafZFkDb37yghi-15">
          <mxGeometry x="-2" y="18" width="10" height="10" as="geometry" />
        </mxCell>
        <mxCell id="Zn6deWEafZFkDb37yghi-18" value="" style="endArrow=none;html=1;rounded=0;startArrow=none;" edge="1" parent="Zn6deWEafZFkDb37yghi-15" source="Zn6deWEafZFkDb37yghi-17" target="Zn6deWEafZFkDb37yghi-16">
          <mxGeometry width="50" height="50" relative="1" as="geometry">
            <mxPoint x="-14" y="66" as="sourcePoint" />
            <mxPoint x="47" y="30" as="targetPoint" />
          </mxGeometry>
        </mxCell>
        <mxCell id="Zn6deWEafZFkDb37yghi-19" value="" style="group;rotation=90;" vertex="1" connectable="0" parent="Zn6deWEafZFkDb37yghi-2">
          <mxGeometry x="15" y="40" width="20" height="30" as="geometry" />
        </mxCell>
        <mxCell id="Zn6deWEafZFkDb37yghi-20" value="" style="ellipse;whiteSpace=wrap;html=1;aspect=fixed;fillColor=#FF66B3;rotation=0;" vertex="1" parent="Zn6deWEafZFkDb37yghi-19">
          <mxGeometry x="11" width="10" height="10" as="geometry" />
        </mxCell>
        <mxCell id="Zn6deWEafZFkDb37yghi-21" value="" style="ellipse;whiteSpace=wrap;html=1;aspect=fixed;fillColor=#FF66B3;rotation=0;" vertex="1" parent="Zn6deWEafZFkDb37yghi-19">
          <mxGeometry x="-1" y="20" width="10" height="10" as="geometry" />
        </mxCell>
        <mxCell id="Zn6deWEafZFkDb37yghi-22" value="" style="endArrow=none;html=1;rounded=0;startArrow=none;" edge="1" parent="Zn6deWEafZFkDb37yghi-19" source="Zn6deWEafZFkDb37yghi-21" target="Zn6deWEafZFkDb37yghi-20">
          <mxGeometry width="50" height="50" relative="1" as="geometry">
            <mxPoint y="70" as="sourcePoint" />
            <mxPoint x="49" y="20" as="targetPoint" />
          </mxGeometry>
        </mxCell>
        <mxCell id="Zn6deWEafZFkDb37yghi-23" value="" style="group;rotation=90;" vertex="1" connectable="0" parent="Zn6deWEafZFkDb37yghi-2">
          <mxGeometry x="10" y="20" width="20" height="30" as="geometry" />
        </mxCell>
        <mxCell id="Zn6deWEafZFkDb37yghi-24" value="" style="ellipse;whiteSpace=wrap;html=1;aspect=fixed;fillColor=#FF66B3;rotation=0;" vertex="1" parent="Zn6deWEafZFkDb37yghi-23">
          <mxGeometry x="11" width="10" height="10" as="geometry" />
        </mxCell>
        <mxCell id="Zn6deWEafZFkDb37yghi-25" value="" style="ellipse;whiteSpace=wrap;html=1;aspect=fixed;fillColor=#FF66B3;rotation=0;" vertex="1" parent="Zn6deWEafZFkDb37yghi-23">
          <mxGeometry x="-1" y="20" width="10" height="10" as="geometry" />
        </mxCell>
        <mxCell id="Zn6deWEafZFkDb37yghi-26" value="" style="endArrow=none;html=1;rounded=0;startArrow=none;" edge="1" parent="Zn6deWEafZFkDb37yghi-23" source="Zn6deWEafZFkDb37yghi-25" target="Zn6deWEafZFkDb37yghi-24">
          <mxGeometry width="50" height="50" relative="1" as="geometry">
            <mxPoint y="70" as="sourcePoint" />
            <mxPoint x="49" y="20" as="targetPoint" />
          </mxGeometry>
        </mxCell>
        <mxCell id="Zn6deWEafZFkDb37yghi-27" value="" style="group;rotation=40;" vertex="1" connectable="0" parent="Zn6deWEafZFkDb37yghi-1">
          <mxGeometry x="60" y="130" width="20" height="30" as="geometry" />
        </mxCell>
        <mxCell id="Zn6deWEafZFkDb37yghi-28" value="" style="ellipse;whiteSpace=wrap;html=1;aspect=fixed;fillColor=#FF66B3;rotation=40;" vertex="1" parent="Zn6deWEafZFkDb37yghi-27">
          <mxGeometry x="15" y="6" width="10" height="10" as="geometry" />
        </mxCell>
        <mxCell id="Zn6deWEafZFkDb37yghi-29" value="" style="ellipse;whiteSpace=wrap;html=1;aspect=fixed;fillColor=#FF66B3;rotation=40;" vertex="1" parent="Zn6deWEafZFkDb37yghi-27">
          <mxGeometry x="-5" y="14" width="10" height="10" as="geometry" />
        </mxCell>
        <mxCell id="Zn6deWEafZFkDb37yghi-30" value="" style="endArrow=none;html=1;rounded=0;startArrow=none;" edge="1" parent="Zn6deWEafZFkDb37yghi-27" source="Zn6deWEafZFkDb37yghi-29" target="Zn6deWEafZFkDb37yghi-28">
          <mxGeometry width="50" height="50" relative="1" as="geometry">
            <mxPoint x="-33" y="51" as="sourcePoint" />
            <mxPoint x="37" y="44" as="targetPoint" />
          </mxGeometry>
        </mxCell>
        <mxCell id="Zn6deWEafZFkDb37yghi-31" value="" style="group;rotation=40;" vertex="1" connectable="0" parent="Zn6deWEafZFkDb37yghi-1">
          <mxGeometry x="50" y="106" width="20" height="30" as="geometry" />
        </mxCell>
        <mxCell id="Zn6deWEafZFkDb37yghi-32" value="" style="ellipse;whiteSpace=wrap;html=1;aspect=fixed;fillColor=#FF66B3;rotation=40;" vertex="1" parent="Zn6deWEafZFkDb37yghi-31">
          <mxGeometry x="15" y="6" width="10" height="10" as="geometry" />
        </mxCell>
        <mxCell id="Zn6deWEafZFkDb37yghi-33" value="" style="ellipse;whiteSpace=wrap;html=1;aspect=fixed;fillColor=#FF66B3;rotation=40;" vertex="1" parent="Zn6deWEafZFkDb37yghi-31">
          <mxGeometry x="-5" y="14" width="10" height="10" as="geometry" />
        </mxCell>
        <mxCell id="Zn6deWEafZFkDb37yghi-34" value="" style="endArrow=none;html=1;rounded=0;startArrow=none;" edge="1" parent="Zn6deWEafZFkDb37yghi-31" source="Zn6deWEafZFkDb37yghi-33" target="Zn6deWEafZFkDb37yghi-32">
          <mxGeometry width="50" height="50" relative="1" as="geometry">
            <mxPoint x="-33" y="51" as="sourcePoint" />
            <mxPoint x="37" y="44" as="targetPoint" />
          </mxGeometry>
        </mxCell>
        <mxCell id="Zn6deWEafZFkDb37yghi-35" value="" style="group;rotation=40;" vertex="1" connectable="0" parent="Zn6deWEafZFkDb37yghi-1">
          <mxGeometry x="70" y="150" width="20" height="56" as="geometry" />
        </mxCell>
        <mxCell id="Zn6deWEafZFkDb37yghi-36" value="" style="ellipse;whiteSpace=wrap;html=1;aspect=fixed;fillColor=#FF66B3;rotation=40;" vertex="1" parent="Zn6deWEafZFkDb37yghi-35">
          <mxGeometry x="15" y="6" width="10" height="10" as="geometry" />
        </mxCell>
        <mxCell id="Zn6deWEafZFkDb37yghi-37" value="" style="ellipse;whiteSpace=wrap;html=1;aspect=fixed;fillColor=#FF66B3;rotation=40;" vertex="1" parent="Zn6deWEafZFkDb37yghi-35">
          <mxGeometry x="-5" y="14" width="10" height="10" as="geometry" />
        </mxCell>
        <mxCell id="Zn6deWEafZFkDb37yghi-38" value="" style="endArrow=none;html=1;rounded=0;startArrow=none;" edge="1" parent="Zn6deWEafZFkDb37yghi-35" source="Zn6deWEafZFkDb37yghi-37" target="Zn6deWEafZFkDb37yghi-36">
          <mxGeometry width="50" height="50" relative="1" as="geometry">
            <mxPoint x="-33" y="51" as="sourcePoint" />
            <mxPoint x="37" y="44" as="targetPoint" />
          </mxGeometry>
        </mxCell>
        <mxCell id="Zn6deWEafZFkDb37yghi-39" value="" style="group;rotation=60;" vertex="1" connectable="0" parent="Zn6deWEafZFkDb37yghi-35">
          <mxGeometry y="16" width="20" height="40" as="geometry" />
        </mxCell>
        <mxCell id="Zn6deWEafZFkDb37yghi-40" value="" style="ellipse;whiteSpace=wrap;html=1;aspect=fixed;fillColor=#FF66B3;rotation=60;" vertex="1" parent="Zn6deWEafZFkDb37yghi-39">
          <mxGeometry x="16" y="10" width="10" height="10" as="geometry" />
        </mxCell>
        <mxCell id="Zn6deWEafZFkDb37yghi-41" value="" style="ellipse;whiteSpace=wrap;html=1;aspect=fixed;fillColor=#FF66B3;rotation=60;" vertex="1" parent="Zn6deWEafZFkDb37yghi-39">
          <mxGeometry x="-6" y="10" width="10" height="10" as="geometry" />
        </mxCell>
        <mxCell id="Zn6deWEafZFkDb37yghi-42" value="" style="endArrow=none;html=1;rounded=0;startArrow=none;" edge="1" parent="Zn6deWEafZFkDb37yghi-39" source="Zn6deWEafZFkDb37yghi-41" target="Zn6deWEafZFkDb37yghi-40">
          <mxGeometry width="50" height="50" relative="1" as="geometry">
            <mxPoint x="-43" y="34" as="sourcePoint" />
            <mxPoint x="25" y="51" as="targetPoint" />
          </mxGeometry>
        </mxCell>
        <mxCell id="Zn6deWEafZFkDb37yghi-43" value="" style="group;rotation=135;" vertex="1" connectable="0" parent="Zn6deWEafZFkDb37yghi-39">
          <mxGeometry x="-11" y="10" width="20" height="30" as="geometry" />
        </mxCell>
        <mxCell id="Zn6deWEafZFkDb37yghi-44" value="" style="ellipse;whiteSpace=wrap;html=1;aspect=fixed;fillColor=#FF66B3;rotation=45;" vertex="1" parent="Zn6deWEafZFkDb37yghi-43">
          <mxGeometry x="16" y="7" width="10" height="10" as="geometry" />
        </mxCell>
        <mxCell id="Zn6deWEafZFkDb37yghi-45" value="" style="ellipse;whiteSpace=wrap;html=1;aspect=fixed;fillColor=#FF66B3;rotation=45;" vertex="1" parent="Zn6deWEafZFkDb37yghi-43">
          <mxGeometry x="-6" y="13" width="10" height="10" as="geometry" />
        </mxCell>
        <mxCell id="Zn6deWEafZFkDb37yghi-46" value="" style="endArrow=none;html=1;rounded=0;startArrow=none;" edge="1" parent="Zn6deWEafZFkDb37yghi-43" source="Zn6deWEafZFkDb37yghi-45" target="Zn6deWEafZFkDb37yghi-44">
          <mxGeometry width="50" height="50" relative="1" as="geometry">
            <mxPoint x="-36" y="47" as="sourcePoint" />
            <mxPoint x="34" y="46" as="targetPoint" />
          </mxGeometry>
        </mxCell>
        <mxCell id="Zn6deWEafZFkDb37yghi-47" value="" style="group;rotation=120;" vertex="1" connectable="0" parent="Zn6deWEafZFkDb37yghi-35">
          <mxGeometry x="-5" y="-6" width="20" height="30" as="geometry" />
        </mxCell>
        <mxCell id="Zn6deWEafZFkDb37yghi-48" value="" style="ellipse;whiteSpace=wrap;html=1;aspect=fixed;fillColor=#FF66B3;rotation=30;" vertex="1" parent="Zn6deWEafZFkDb37yghi-47">
          <mxGeometry x="15" y="4" width="10" height="10" as="geometry" />
        </mxCell>
        <mxCell id="Zn6deWEafZFkDb37yghi-49" value="" style="ellipse;whiteSpace=wrap;html=1;aspect=fixed;fillColor=#FF66B3;rotation=30;" vertex="1" parent="Zn6deWEafZFkDb37yghi-47">
          <mxGeometry x="-5" y="16" width="10" height="10" as="geometry" />
        </mxCell>
        <mxCell id="Zn6deWEafZFkDb37yghi-50" value="" style="endArrow=none;html=1;rounded=0;startArrow=none;" edge="1" parent="Zn6deWEafZFkDb37yghi-47" source="Zn6deWEafZFkDb37yghi-49" target="Zn6deWEafZFkDb37yghi-48">
          <mxGeometry width="50" height="50" relative="1" as="geometry">
            <mxPoint x="-26" y="58" as="sourcePoint" />
            <mxPoint x="41" y="39" as="targetPoint" />
          </mxGeometry>
        </mxCell>
        <mxCell id="Zn6deWEafZFkDb37yghi-51" value="" style="group;rotation=90;" vertex="1" connectable="0" parent="Zn6deWEafZFkDb37yghi-1">
          <mxGeometry x="25" y="50" width="20" height="30" as="geometry" />
        </mxCell>
        <mxCell id="Zn6deWEafZFkDb37yghi-52" value="" style="ellipse;whiteSpace=wrap;html=1;aspect=fixed;fillColor=#FF66B3;rotation=0;" vertex="1" parent="Zn6deWEafZFkDb37yghi-51">
          <mxGeometry x="11" width="10" height="10" as="geometry" />
        </mxCell>
        <mxCell id="Zn6deWEafZFkDb37yghi-53" value="" style="ellipse;whiteSpace=wrap;html=1;aspect=fixed;fillColor=#FF66B3;rotation=0;" vertex="1" parent="Zn6deWEafZFkDb37yghi-51">
          <mxGeometry x="-1" y="20" width="10" height="10" as="geometry" />
        </mxCell>
        <mxCell id="Zn6deWEafZFkDb37yghi-54" value="" style="endArrow=none;html=1;rounded=0;startArrow=none;" edge="1" parent="Zn6deWEafZFkDb37yghi-51" source="Zn6deWEafZFkDb37yghi-53" target="Zn6deWEafZFkDb37yghi-52">
          <mxGeometry width="50" height="50" relative="1" as="geometry">
            <mxPoint y="70" as="sourcePoint" />
            <mxPoint x="49" y="20" as="targetPoint" />
          </mxGeometry>
        </mxCell>
        <mxCell id="Zn6deWEafZFkDb37yghi-55" value="0" style="text;html=1;align=center;verticalAlign=middle;resizable=0;points=[];autosize=1;strokeColor=none;fillColor=none;" vertex="1" parent="1">
          <mxGeometry x="60" y="440" width="25" height="26" as="geometry" />
        </mxCell>
        <mxCell id="Zn6deWEafZFkDb37yghi-56" value="x" style="text;html=1;align=center;verticalAlign=middle;resizable=0;points=[];autosize=1;strokeColor=none;fillColor=none;" vertex="1" parent="1">
          <mxGeometry x="204" y="444" width="24" height="26" as="geometry" />
        </mxCell>
        <mxCell id="Zn6deWEafZFkDb37yghi-57" value="y" style="text;html=1;align=center;verticalAlign=middle;resizable=0;points=[];autosize=1;strokeColor=none;fillColor=none;" vertex="1" parent="1">
          <mxGeometry x="52" y="335.94" width="24" height="26" as="geometry" />
        </mxCell>
      </root>
    </mxGraphModel>
  </diagram>
</mxfile>
